Coordinates
version=1
nRows=9
nColumns=36
inDegrees=yes

Units are S.I. units (second, meters, Newtons, ...)
If the header above contains a line with 'inDegrees', this indicates whether rotational values are in degrees (yes) or radians (no).

endheader
time	pelvis_tilt	pelvis_list	pelvis_rotation	pelvis_tx	pelvis_ty	pelvis_tz	hip_flexion_r	hip_adduction_r	hip_rotation_r	knee_angle_r	knee_angle_r_beta	ankle_angle_r	subtalar_angle_r	mtp_angle_r	hip_flexion_l	hip_adduction_l	hip_rotation_l	knee_angle_l	knee_angle_l_beta	ankle_angle_l	subtalar_angle_l	mtp_angle_l	lumbar_extension	lumbar_bending	lumbar_rotation	arm_flex_r	arm_add_r	arm_rot_r	elbow_flex_r	pro_sup_r	arm_flex_l	arm_add_l	arm_rot_l	elbow_flex_l	pro_sup_l
      6.40000000	    -28.58369121	     -4.27279789	     -3.80576160	     -0.27207207	      0.61953234	     -0.58234022	     91.85024456	    -10.90175494	     -1.76971128	     97.52002457	      1.70204552	     34.49470480	     -1.97824663	     -7.49999987	     95.72048745	    -14.30968683	     10.33305953	    100.28124038	      1.75023782	     34.99021804	     -0.11599507	     -7.49999987	    -29.96385711	      3.69249847	      1.81913323	     73.66295900	    -26.39037013	     11.71901847	    133.97908417	     94.96812434	     68.14895778	    -22.31665938	      9.35483443	    136.23656916	     90.92726679
      6.41000000	    -28.65513666	     -4.13201895	     -3.70857946	     -0.27163259	      0.61900778	     -0.58269032	     92.03137432	    -11.05683933	     -1.61025578	     97.65591778	      1.70441730	     34.32057929	     -2.37030006	     -7.49999987	     95.71791683	    -14.05106788	     10.22462414	    100.31950516	      1.75090567	     34.83529811	     -0.67559364	     -7.49999987	    -29.82323622	      3.59123011	      1.70681813	     73.43822680	    -26.37125886	     11.50270082	    134.09567300	     94.16958206	     68.13007522	    -22.29448456	      9.30976201	    136.40677848	     90.28232157
      6.42000000	    -28.71705721	     -4.09804168	     -3.69434596	     -0.27112222	      0.61882294	     -0.58276477	     92.09560602	    -11.07549709	     -1.56445391	     97.70354984	      1.70524864	     34.19275738	     -2.61924752	     -7.49999987	     95.72773482	    -13.96269776	     10.20808256	    100.34834250	      1.75140898	     34.71634892	     -1.13817983	     -7.49999987	    -29.68935133	      3.54933074	      1.69848244	     73.22330705	    -26.35749014	     11.49931663	    134.21376877	     93.21104179	     68.11393538	    -22.36879582	      9.44007394	    136.56618162	     89.50451615
      6.43000000	    -28.59316927	     -4.37725342	     -3.88837321	     -0.27060697	      0.61927531	     -0.58235272	     91.75979433	    -10.77644456	     -1.85893774	     97.61466884	      1.70369737	     34.33998071	     -2.44873653	     -7.49999987	     95.65602522	    -14.22191131	     10.57481437	    100.42737992	      1.75278844	     34.92861657	     -0.73805175	     -7.49999987	    -29.85679818	      3.68817803	      2.06791935	     73.20051916	    -26.43300430	     11.36762544	    133.77296789	     98.06326602	     68.17786738	    -22.33395392	      9.34510769	    135.98715643	     94.20548804
      6.44000000	    -28.49012199	     -4.37430388	     -3.91191382	     -0.27024785	      0.61952284	     -0.58224742	     91.64181941	    -10.72828526	     -1.85126140	     97.65656145	      1.70442853	     34.24209046	     -2.61919993	     -7.49999987	     95.51203147	    -14.22153741	     10.58631432	    100.45067830	      1.75319507	     34.83136226	     -0.98911610	     -7.49999987	    -29.96509514	      3.60257650	      2.08305181	     73.11371818	    -26.32300534	     11.21097287	    133.79093821	     97.38247755	     68.27215463	    -22.26426424	      9.22525097	    136.10556258	     93.61314053
      6.45000000	    -28.46079196	     -4.48136635	     -3.94285724	     -0.27001375	      0.61955241	     -0.58237628	     91.53257006	    -10.68922362	     -1.95562722	     97.60752069	      1.70357261	     34.19306030	     -2.71849164	     -7.49999987	     95.51753874	    -14.21731314	     10.72433062	    100.48942393	      1.75387131	     34.74135275	     -1.23258494	     -7.49999987	    -30.00818074	      3.69973210	      2.24410921	     73.15644685	    -26.46730670	     11.23537609	    133.96449936	     96.14491113	     68.38105828	    -22.31936151	      9.36507394	    136.24480728	     92.53468897
      6.46000000	    -28.53979896	     -4.41894571	     -3.91433802	     -0.26972332	      0.61939632	     -0.58256322	     91.63041801	    -10.77503235	     -1.90650706	     97.64065764	      1.70415096	     34.28090159	     -2.55168278	     -7.49999987	     95.56105166	    -14.12415320	     10.71142952	    100.51464012	      1.75431142	     34.79308584	     -1.10153714	     -7.49999987	    -29.84204616	      3.66725833	      2.22757095	     73.08373719	    -26.50928727	     11.30738815	    133.96058110	     95.94976317	     68.33403766	    -22.28531373	      9.37215293	    136.29132158	     92.29188288
      6.47000000	    -28.63346736	     -4.43657085	     -3.93567562	     -0.26932412	      0.61947763	     -0.58251107	     91.65272920	    -10.74964435	     -1.93568434	     97.60167600	      1.70347060	     34.38295933	     -2.44331159	     -7.49999987	     95.61904360	    -14.14483498	     10.74685313	    100.50100328	      1.75407341	     34.85420831	     -0.98410837	     -7.49999987	    -29.69481978	      3.70955186	      2.20831479	     73.00899111	    -26.39388908	     11.37642806	    133.91914497	     95.69930217	     68.17348953	    -22.41318736	      9.27816280	    136.42798796	     91.98352293
      6.48000000	    -28.68368475	     -4.40635463	     -3.92499721	     -0.26892386	      0.61973784	     -0.58240285	     91.64840654	    -10.75628411	     -1.93280460	     97.55974935	      1.70273884	     34.34375300	     -2.59553161	     -7.49999987	     95.58566466	    -14.13722532	     10.69464995	    100.44423498	      1.75308262	     34.80041687	     -1.19548549	     -7.49999987	    -29.63495899	      3.65746157	      2.16257828	     72.86956540	    -26.29306480	     11.25933879	    134.04056111	     94.98401202	     68.09102943	    -22.49792320	      9.21026813	    136.61723285	     91.32085216
